<svg xmlns="http://www.w3.org/2000/svg" width="100" height="100" viewBox="0 0 100 100" fill="none">
  <path
    d="M6.017 4.313l55.333-4.087c6.797-.583 8.543-.19 12.817 2.917l17.663 12.443c2.913 2.14 3.883 2.723 3.883 5.053v68.243c0 4.277-1.553 6.807-6.99 7.193L24.467 99.967c-4.08.193-6.023-.39-8.16-3.113L3.3 79.94c-2.333-3.113-3.3-5.443-3.3-8.167V11.113c0-3.497 1.553-6.413 6.017-6.8z"
    fill="#fff"
  />
  <path
    fill-rule="evenodd"
    clip-rule="evenodd"
    d="M61.35.227l-55.333 4.087C1.553 4.7 0 7.617 0 11.113v60.66c0 2.723.967 5.053 3.3 8.167l13.007 16.913c2.137 2.723 4.08 3.307 8.16 3.113l64.257-3.89c5.433-.387 6.99-2.917 6.99-7.193V20.64c0-2.21-.82-2.837-3.46-4.733L74.167 3.143C69.893.227 68.147-.357 61.35.227zM25.333 19.12c-5.2.33-6.38.397-9.33-1.953L8.927 11.46c-.78-.78-.39-1.753 1.163-1.947l52.613-3.887c4.473-.39 6.797 1.167 8.543 2.527l8.737 6.22c.39.193.97 1.36.193 1.36l-54.457 3.193-.387.193zM19.08 88.3V30.377c0-2.527.78-3.697 3.103-3.893L86 22.78c2.14-.193 3.107 1.167 3.107 3.693v57.547c0 2.53-.39 4.67-3.883 4.863l-60.377 3.5c-3.493.193-5.167-.97-5.767-4.083zM74.36 34.067c.39 1.75 0 3.5-1.75 3.7l-2.917.577v42.773c-2.527 1.36-4.853 2.137-6.797 2.137-3.107 0-3.883-.97-6.217-3.887L37.6 49.55v27.817l6.017 1.36s0 3.5-4.853 3.5l-13.39.78c-.39-.78 0-2.723 1.357-3.11l3.497-.97V40.873l-4.853-.39c-.39-1.75.583-4.277 3.3-4.473l14.367-.967 20.217 30.917V41.227l-5.053-.583c-.39-2.143 1.163-3.7 3.103-3.89l13.053-.687z"
    fill="#000"
  />
</svg>
